<svg height="50" preserveAspectRatio="xMinYMid" version="1.1" xmlns="http://www.w3.org/2000/svg" xmlns:xlink="http://www.w3.org/1999/xlink" viewBox="0 0 253.1 50">
<style type="text/css">
	.st0{fill:#00BFD6;}
	.st1{fill:#00BFD6;}
	.st2{fill:url(#SVGID_1_);}
	.st3{fill:url(#SVGID_2_);}
</style>
<g>
	<path class="st0" d="M223.9,0.6h27v6.8h-9.4v24.7h-8.2V7.4h-9.4L223.9,0.6L223.9,0.6z"/>
	<path class="st0" d="M0.1,0.6h8.2v12.9H21V0.6h8.2v31.5H21V20H8.3v12.1H0.1V0.6z"/>
	<g>
		<path class="st0" d="M186,13.4h-13.2V20h6.1v4.1c-2.1,1-3.9,1.5-5.4,1.5c-1.7,0-3.2-0.4-4.6-1.2c-1.4-0.8-2.4-1.9-3.2-3.4
			c-0.7-1.4-1.2-3-1.2-4.8c0-1.7,0.4-3.3,1.2-4.7c0.7-1.4,1.9-2.5,3.2-3.3c1.4-0.8,2.9-1.2,4.6-1.2c1.4,0,2.9,0.3,4.4,0.9
			s2.8,1.5,3.9,2.6l4.7-5.7c-1.6-1.4-3.6-2.6-5.9-3.4s-4.7-1.3-7-1.3c-3.2,0-6.2,0.7-8.9,2.1c-2.6,1.4-4.7,3.4-6.2,5.8
			c-1.5,2.5-2.2,5.2-2.2,8.3s0.7,5.9,2.2,8.4c1.5,2.5,3.5,4.4,6.1,5.9c2.6,1.4,5.4,2.1,8.6,2.1c2.2,0,4.5-0.4,6.9-1.1
			c2.4-0.7,4.5-1.7,6.2-3V16l0,0L186,13.4L186,13.4z"/>
	</g>
	<path class="st0" d="M35.3,0.6h8.2v31.5h-8.2V0.6z"/>
	<path class="st0" d="M118.4,0.6h8.2V25H140v7h-21.6V0.6z"/>
	<path class="st0" d="M83.1,0.6h8.2v12.9h12.7V0.6h8.2v31.5h-8.2V20H91.3v12.1h-8.2V0.6z"/>
	<g>
		<path class="st0" d="M60.5,8.2c1.4-0.8,2.9-1.2,4.6-1.2c1.4,0,2.9,0.3,4.4,0.9c1.5,0.6,2.8,1.5,3.9,2.6L78,4.8
			c-1.6-1.4-3.6-2.6-5.9-3.4c-2.3-0.9-4.7-1.3-7-1.3c-3.3,0-6.3,0.7-8.9,2.1c-2.6,1.4-4.7,3.4-6.2,5.8c-1.5,2.5-2.2,5.2-2.2,8.3
			s0.7,5.9,2.2,8.4c1.5,2.5,3.5,4.4,6.1,5.9c2.6,1.4,5.4,2.1,8.6,2.1c2.2,0,4.5-0.4,6.9-1.1s4.5-1.7,6.2-3V16l0,0v-2.6H64.4V20h6.1
			v4.1c-2.1,1-3.9,1.5-5.4,1.5c-1.7,0-3.2-0.4-4.6-1.2c-1.4-0.8-2.4-1.9-3.2-3.4c-0.7-1.4-1.2-3-1.2-4.8c0-1.7,0.4-3.3,1.2-4.7
			C58.1,10.2,59.1,9.1,60.5,8.2z"/>
	</g>
	<path class="st0" d="M143.6,0.6h8.2v31.5h-8.2V0.6z"/>
	<path class="st0" d="M191.4,0.6h8.2v12.9h12.7V0.6h8.2v31.5h-8.2V20h-12.7v12.1h-8.2V0.6z"/>
</g>
<g id="Games_1_">
	<path id="S" class="st1" d="M147.4,42.6c-0.6-0.2-1-0.2-1.4-0.2c-0.3,0-0.6,0.1-0.7,0.2c-0.2,0.1-0.2,0.2-0.2,0.5
		c0,0.2,0.1,0.4,0.2,0.5c0.1,0.1,0.3,0.2,0.6,0.3c0.2,0.1,0.6,0.2,1,0.3c0.6,0.2,1.2,0.4,1.6,0.6c0.4,0.2,0.7,0.4,1.1,0.9
		c0.3,0.4,0.4,0.9,0.4,1.5c0,0.6-0.2,1.1-0.5,1.6c-0.3,0.4-0.7,0.7-1.3,1c-0.6,0.2-1.2,0.3-1.9,0.3c-0.7,0-1.5-0.1-2.2-0.4
		c-0.7-0.2-1.4-0.6-1.9-1.1l0.9-1.9c0.4,0.4,1,0.7,1.6,1c0.6,0.2,1.2,0.4,1.7,0.4c0.4,0,0.6-0.1,0.9-0.2c0.2-0.1,0.3-0.3,0.3-0.6
		c0-0.2-0.1-0.4-0.2-0.5c-0.1-0.1-0.4-0.2-0.6-0.3s-0.6-0.2-1-0.3c-0.6-0.2-1.1-0.4-1.6-0.6s-0.7-0.4-1.1-0.8
		c-0.3-0.4-0.4-0.9-0.4-1.4s0.1-1.1,0.4-1.5c0.3-0.4,0.7-0.7,1.3-1s1.2-0.4,1.9-0.4c0.7,0,1.3,0.1,1.9,0.3c0.6,0.2,1.2,0.4,1.7,0.7
		l-0.9,1.9C148.4,43.1,147.9,42.8,147.4,42.6z"/>
	<path id="E" class="st1" d="M133.8,40.6h7.2v1.9h-4.9v1.7h4.4v1.9h-4.4v1.7h5v1.9h-7.4V40.6z"/>
	<path id="M" class="st1" d="M121.4,40.6h2.6l2.7,5.4l2.6-5.4h2.6v9.2h-2.1v-5.8l-2.4,4.9h-1.6l-2.4-4.9v5.8h-2.1V40.6z"/>
	<path id="A_x03_" class="st1" d="M118,49.8l-0.6-1.6h-4l-0.6,1.6h-2.4l3.9-9.2h2.4l3.9,9.2H118z M114.2,46.3h2.6l-1.2-3.2
		L114.2,46.3z"/>
	<path id="G" class="st1" d="M109.7,45.1h-3.6v1.7h1.5v0.7c-0.6,0.3-1.1,0.4-1.6,0.4c-0.5,0-0.9-0.1-1.3-0.4c-0.4-0.2-0.7-0.6-0.9-1
		c-0.2-0.4-0.3-0.9-0.3-1.4c0-0.5,0.1-0.9,0.3-1.4c0.2-0.4,0.6-0.7,0.9-1s0.8-0.4,1.3-0.4c0.4,0,0.9,0.1,1.2,0.2
		c0.4,0.2,0.8,0.4,1.1,0.7l1.4-1.7c-0.5-0.4-1.1-0.7-1.7-1c-0.7-0.2-1.4-0.4-2.1-0.4c-0.9,0-1.8,0.2-2.6,0.6c-0.7,0.4-1.4,1-1.8,1.7
		c-0.4,0.7-0.7,1.5-0.7,2.4c0,0.9,0.2,1.7,0.6,2.4c0.4,0.7,1,1.3,1.7,1.7c0.7,0.4,1.6,0.6,2.5,0.6c0.6,0,1.3-0.1,2-0.3
		c0.7-0.2,1.4-0.5,1.9-0.9L109.7,45.1L109.7,45.1L109.7,45.1z"/>
</g>
<linearGradient id="SVGID_1_" gradientUnits="userSpaceOnUse" x1="0" y1="83.3056" x2="90.824" y2="83.3056" gradientTransform="matrix(1 0 0 1 0 -37.8)">
	<stop  offset="0.5287" style="stop-color:#00B5CE"/>
	<stop  offset="1" style="stop-color:#3361AA"/>
</linearGradient>
<rect y="45.2" class="st2" width="90.8" height="0.6"/>
<linearGradient id="SVGID_2_" gradientUnits="userSpaceOnUse" x1="250.8739" y1="83.3056" x2="160.0499" y2="83.3056" gradientTransform="matrix(1 0 0 1 0 -37.8)">
	<stop  offset="0.5287" style="stop-color:#00B5CE"/>
	<stop  offset="1" style="stop-color:#3361AA"/>
</linearGradient>
<rect x="160" y="45.2" class="st3" width="90.8" height="0.6"/>
</svg>
